<?xml version="1.0" encoding="UTF-8" standalone="no"?>
<!-- Created with Inkscape (http://www.inkscape.org/) -->

<svg
   xmlns:dc="http://purl.org/dc/elements/1.1/"
   xmlns:cc="http://creativecommons.org/ns#"
   xmlns:rdf="http://www.w3.org/1999/02/22-rdf-syntax-ns#"
   xmlns:svg="http://www.w3.org/2000/svg"
   xmlns="http://www.w3.org/2000/svg"
   xmlns:sodipodi="http://sodipodi.sourceforge.net/DTD/sodipodi-0.dtd"
   xmlns:inkscape="http://www.inkscape.org/namespaces/inkscape"
   width="210mm"
   height="297mm"
   viewBox="0 0 744.09448819 1052.3622047"
   id="svg2"
   version="1.1"
   inkscape:version="0.91 r13725"
   sodipodi:docname="barcodes.svg">
  <defs
     id="defs4">
    <marker
       inkscape:stockid="Arrow1Mend"
       orient="auto"
       refY="0.0"
       refX="0.0"
       id="Arrow1Mend"
       style="overflow:visible;"
       inkscape:isstock="true">
      <path
         id="path4430"
         d="M 0.0,0.0 L 5.0,-5.0 L -12.5,0.0 L 5.0,5.0 L 0.0,0.0 z "
         style="fill-rule:evenodd;stroke:#000000;stroke-width:1pt;stroke-opacity:1;fill:#000000;fill-opacity:1"
         transform="scale(0.4) rotate(180) translate(10,0)" />
    </marker>
    <marker
       inkscape:stockid="Arrow1Lend"
       orient="auto"
       refY="0.0"
       refX="0.0"
       id="Arrow1Lend"
       style="overflow:visible;"
       inkscape:isstock="true">
      <path
         id="path4424"
         d="M 0.0,0.0 L 5.0,-5.0 L -12.5,0.0 L 5.0,5.0 L 0.0,0.0 z "
         style="fill-rule:evenodd;stroke:#000000;stroke-width:1pt;stroke-opacity:1;fill:#000000;fill-opacity:1"
         transform="scale(0.8) rotate(180) translate(12.5,0)" />
    </marker>
    <marker
       inkscape:stockid="Arrow1Mend"
       orient="auto"
       refY="0"
       refX="0"
       id="Arrow1Mend-9"
       style="overflow:visible"
       inkscape:isstock="true">
      <path
         inkscape:connector-curvature="0"
         id="path4430-2"
         d="M 0,0 5,-5 -12.5,0 5,5 0,0 Z"
         style="fill:#000000;fill-opacity:1;fill-rule:evenodd;stroke:#000000;stroke-width:1pt;stroke-opacity:1"
         transform="matrix(-0.4,0,0,-0.4,-4,0)" />
    </marker>
    <marker
       inkscape:stockid="Arrow1Mend"
       orient="auto"
       refY="0"
       refX="0"
       id="Arrow1Mend-2"
       style="overflow:visible"
       inkscape:isstock="true">
      <path
         inkscape:connector-curvature="0"
         id="path4430-9"
         d="M 0,0 5,-5 -12.5,0 5,5 0,0 Z"
         style="fill:#000000;fill-opacity:1;fill-rule:evenodd;stroke:#000000;stroke-width:1pt;stroke-opacity:1"
         transform="matrix(-0.4,0,0,-0.4,-4,0)" />
    </marker>
  </defs>
  <sodipodi:namedview
     id="base"
     pagecolor="#ffffff"
     bordercolor="#666666"
     borderopacity="1.0"
     inkscape:pageopacity="0.0"
     inkscape:pageshadow="2"
     inkscape:zoom="1.979899"
     inkscape:cx="332.19042"
     inkscape:cy="926.3573"
     inkscape:document-units="px"
     inkscape:current-layer="layer1"
     showgrid="false"
     inkscape:window-width="1855"
     inkscape:window-height="1056"
     inkscape:window-x="65"
     inkscape:window-y="24"
     inkscape:window-maximized="1" />
  <metadata
     id="metadata7">
    <rdf:RDF>
      <cc:Work
         rdf:about="">
        <dc:format>image/svg+xml</dc:format>
        <dc:type
           rdf:resource="http://purl.org/dc/dcmitype/StillImage" />
        <dc:title />
      </cc:Work>
    </rdf:RDF>
  </metadata>
  <g
     inkscape:label="Layer 1"
     inkscape:groupmode="layer"
     id="layer1">
    <path
       style="fill:#d42aff;fill-rule:evenodd;stroke:#d42aff;stroke-width:1px;stroke-linecap:butt;stroke-linejoin:miter;stroke-opacity:1"
       d="m 150.76527,95.116397 22.60216,0"
       id="path4304"
       inkscape:connector-curvature="0" />
    <path
       style="fill:none;fill-rule:evenodd;stroke:#cc00ff;stroke-width:1px;stroke-linecap:butt;stroke-linejoin:miter;stroke-opacity:1"
       d="m 121.97592,15.801212 c 0,0 -3.47136,2.717287 -3.30357,4.596704 0.1959,2.194237 4.61201,2.399732 4.74664,4.59858 0.16015,2.615826 -5.11352,3.503834 -4.93723,6.118623 0.15391,2.282951 4.91533,2.428217 4.9887,4.715174 0.0685,2.135748 -4.21363,2.561639 -4.36704,4.692971 -0.2003,2.782863 4.69338,4.091867 4.76571,6.880991 0.045,1.734673 -2.30498,2.747145 -2.73819,4.427455 -1.42866,5.541397 0.84498,17.146991 0.84498,17.146991"
       id="path4138"
       inkscape:connector-curvature="0"
       sodipodi:nodetypes="csssssssc" />
    <path
       style="fill:none;fill-rule:evenodd;stroke:#cc00ff;stroke-width:1px;stroke-linecap:butt;stroke-linejoin:miter;stroke-opacity:1"
       d="m 169.17178,26.106124 c 0,0 -4.40278,0.222585 -5.34785,1.855742 -1.10338,1.906728 2.38872,4.61772 1.2326,6.492936 -1.37537,2.230816 -6.19827,-0.07999 -7.55985,2.159269 -1.18879,1.955078 2.6203,4.815674 1.36336,6.727648 -1.17386,1.785548 -4.92,-0.332098 -6.27274,1.322054 -1.76625,2.159815 1.48085,6.047999 -0.0661,8.369925 -0.96211,1.444112 -3.46638,0.918648 -4.78815,2.042941 -4.359,3.70774 -9.18316,14.505269 -9.18316,14.505269"
       id="path4138-3"
       inkscape:connector-curvature="0"
       sodipodi:nodetypes="csssssssc" />
    <path
       style="fill:none;fill-rule:evenodd;stroke:#cc00ff;stroke-width:1px;stroke-linecap:butt;stroke-linejoin:miter;stroke-opacity:1"
       d="m 196.91529,59.169947 c 0,0 -3.93552,-1.986375 -5.5652,-1.035312 -1.90266,1.110376 -0.21075,5.1947 -2.14364,6.251585 -2.29943,1.257298 -5.34572,-3.138192 -7.63735,-1.866731 -2.00081,1.110098 -0.10755,5.481343 -2.14623,6.52025 -1.90391,0.970196 -4.11029,-2.724377 -6.10456,-1.956905 -2.60389,1.002088 -1.70767,5.98791 -4.20129,7.239421 -1.55088,0.778376 -3.46655,-0.918005 -5.17158,-0.595565 -5.62295,1.063351 -15.16011,8.056316 -15.16011,8.056316"
       id="path4138-3-6"
       inkscape:connector-curvature="0"
       sodipodi:nodetypes="csssssssc" />
    <path
       style="fill:none;fill-rule:evenodd;stroke:#cc00ff;stroke-width:1px;stroke-linecap:butt;stroke-linejoin:miter;stroke-opacity:1"
       d="m 201.99842,127.25393 c 0,0 -1.78226,-4.03207 -3.64539,-4.33065 -2.1752,-0.34859 -3.45819,3.88203 -5.62284,3.47292 -2.57513,-0.48672 -2.14174,-5.81704 -4.71983,-6.28785 -2.2509,-0.41108 -3.56025,4.16908 -5.79528,3.67896 -2.08724,-0.45776 -1.4492,-4.71344 -3.47771,-5.38523 -2.64859,-0.87713 -5.11855,3.54564 -7.84013,2.93127 -1.69266,-0.38208 -2.09745,-2.90867 -3.62005,-3.741 -5.02132,-2.74493 -16.82997,-3.38901 -16.82997,-3.38901"
       id="path4138-3-6-7"
       inkscape:connector-curvature="0"
       sodipodi:nodetypes="csssssssc" />
    <path
       style="fill:none;fill-rule:evenodd;stroke:#cc00ff;stroke-width:1px;stroke-linecap:butt;stroke-linejoin:miter;stroke-opacity:1"
       d="m 171.37537,163.57607 c 0,0 0.55532,-4.37329 -0.88614,-5.5909 -1.68292,-1.42156 -4.96589,1.53924 -6.60852,0.0713 -1.9541,-1.74633 1.16901,-6.08756 -0.79584,-7.8218 -1.71548,-1.51415 -5.20149,1.73239 -6.86257,0.15874 -1.55122,-1.46964 1.19235,-4.78488 -0.19808,-6.4075 -1.81545,-2.11861 -6.21417,0.39394 -8.22779,-1.53732 -1.25236,-1.20111 -0.2946,-3.57392 -1.16887,-5.07283 -2.88319,-4.94323 -12.66381,-11.59142 -12.66381,-11.59142"
       id="path4138-3-6-7-5"
       inkscape:connector-curvature="0"
       sodipodi:nodetypes="csssssssc" />
    <path
       style="fill:none;fill-rule:evenodd;stroke:#cc00ff;stroke-width:1px;stroke-linecap:butt;stroke-linejoin:miter;stroke-opacity:1"
       d="m 127.93499,175.89705 c 0,0 2.99402,-3.23572 2.52889,-5.06439 -0.54305,-2.13499 -4.93547,-1.63415 -5.41877,-3.78346 -0.57492,-2.55688 4.48986,-4.27389 3.89916,-6.82718 -0.51572,-2.22925 -5.23945,-1.61394 -5.67632,-3.85998 -0.40793,-2.09755 3.75162,-3.20034 3.56344,-5.3289 -0.2457,-2.77921 -5.28544,-3.29169 -5.80129,-6.03365 -0.32085,-1.70532 1.83777,-3.07933 1.99768,-4.80719 0.52741,-5.69826 -3.56651,-16.79325 -3.56651,-16.79325"
       id="path4138-3-6-7-5-3"
       inkscape:connector-curvature="0"
       sodipodi:nodetypes="csssssssc" />
    <path
       style="fill:none;fill-rule:evenodd;stroke:#cc00ff;stroke-width:1px;stroke-linecap:butt;stroke-linejoin:miter;stroke-opacity:1"
       d="m 59.713748,149.91627 c 0,0 4.124192,1.55727 5.643671,0.43853 1.774004,-1.30613 -0.342027,-5.1877 1.467718,-6.44386 2.152934,-1.49434 5.648716,2.55283 7.792389,1.04522 1.871623,-1.31626 -0.475078,-5.46177 1.441757,-6.71128 1.790131,-1.16686 4.376337,2.27255 6.277848,1.29765 2.482759,-1.27291 1.062198,-6.13538 3.408839,-7.64459 1.459448,-0.93865 3.544425,0.54473 5.205569,0.0431 5.478258,-1.65439 14.218971,-9.6205 14.218971,-9.6205"
       id="path4138-3-6-7-5-3-5"
       inkscape:connector-curvature="0"
       sodipodi:nodetypes="csssssssc" />
    <path
       style="fill:none;fill-rule:evenodd;stroke:#cc00ff;stroke-width:1px;stroke-linecap:butt;stroke-linejoin:miter;stroke-opacity:1"
       d="m 38.027274,111.55013 c 0,0 3.120761,3.11367 4.965642,2.71767 2.15391,-0.46231 1.818715,-4.87047 3.98469,-5.27254 2.576705,-0.4783 4.101908,4.6475 6.675618,4.1533 2.247077,-0.43146 1.809963,-5.17501 4.070848,-5.52704 2.111417,-0.32871 3.056898,3.86939 5.19103,3.76145 2.78649,-0.14095 3.488257,-5.15783 6.247686,-5.57013 1.716184,-0.25645 3.007991,1.95235 4.728594,2.1772 5.674375,0.74147 16.915564,-2.93204 16.915564,-2.93204"
       id="path4138-3-6-7-5-3-5-6"
       inkscape:connector-curvature="0"
       sodipodi:nodetypes="csssssssc" />
    <path
       style="fill:none;fill-rule:evenodd;stroke:#cc00ff;stroke-width:1px;stroke-linecap:butt;stroke-linejoin:miter;stroke-opacity:1"
       d="m 41.772274,66.082838 c 0,0 1.380094,4.186816 3.205177,4.665852 2.130785,0.559297 3.820667,-3.525863 5.935038,-2.907364 2.515309,0.735798 1.563604,5.998338 4.083414,6.718594 2.20001,0.628866 3.950269,-3.801589 6.12676,-3.095608 2.032582,0.659351 0.982112,4.832418 2.935351,5.699037 2.550309,1.131511 5.440254,-3.028991 8.08885,-2.151847 1.647264,0.545503 1.803458,3.099552 3.237498,4.076568 4.729347,3.222047 16.418705,5.015904 16.418705,5.015904"
       id="path4138-3-6-7-5-3-5-6-2"
       inkscape:connector-curvature="0"
       sodipodi:nodetypes="csssssssc" />
    <path
       style="fill:none;fill-rule:evenodd;stroke:#cc00ff;stroke-width:1px;stroke-linecap:butt;stroke-linejoin:miter;stroke-opacity:1"
       d="m 73.20226,31.884491 c 0,0 -1.154912,4.25444 0.104288,5.659722 1.470105,1.640686 5.131052,-0.837558 6.554842,0.843492 1.693768,1.999833 -1.999798,5.867344 -0.293711,7.856686 1.489548,1.736883 5.391119,-0.996262 6.818554,0.79202 1.333027,1.670082 -1.842733,4.573963 -0.690113,6.373307 1.504963,2.349357 6.20893,0.469395 7.936059,2.660619 1.074184,1.362785 -0.202583,3.580313 0.455918,5.185744 2.171724,5.294518 10.938753,13.231664 10.938753,13.231664"
       id="path4138-3-6-7-5-3-5-6-9"
       inkscape:connector-curvature="0"
       sodipodi:nodetypes="csssssssc" />
    <path
       style="fill:#dbdbe3;fill-opacity:1;stroke:#000000;stroke-width:1;stroke-miterlimit:4;stroke-dasharray:none;stroke-dashoffset:0;stroke-opacity:1"
       id="path4136"
       sodipodi:type="arc"
       sodipodi:cx="122.98607"
       sodipodi:cy="99.030739"
       sodipodi:rx="41.668793"
       sodipodi:ry="41.668793"
       sodipodi:start="5.7829739"
       sodipodi:end="5.7787153"
       sodipodi:open="true"
       d="M 159.54965,79.045925 A 41.668793,41.668793 0 0 1 143.0098,135.57302 41.668793,41.668793 0 0 1 86.465123,119.09336 41.668793,41.668793 0 0 1 102.88457,62.531174 41.668793,41.668793 0 0 1 159.46421,78.890397" />
    <text
       xml:space="preserve"
       style="font-style:normal;font-weight:normal;font-size:12.28699684px;line-height:125%;font-family:sans-serif;letter-spacing:0px;word-spacing:0px;fill:#000000;fill-opacity:1;stroke:none;stroke-width:1px;stroke-linecap:butt;stroke-linejoin:miter;stroke-opacity:1"
       x="175.04985"
       y="99.801964"
       id="text4306"
       sodipodi:linespacing="125%"><tspan
         sodipodi:role="line"
         id="tspan4308"
         x="175.04985"
         y="99.801964"><tspan
   style="fill:#aa00d4"
   id="tspan4314">CGACTA</tspan>-<tspan
   style="fill:#ff0000"
   id="tspan4310">NNNN</tspan>-TTTTTTTT-3'</tspan></text>
    <path
       style="fill:#d42aff;fill-rule:evenodd;stroke:#37abc8;stroke-width:1px;stroke-linecap:butt;stroke-linejoin:miter;stroke-opacity:1"
       d="m 161.97936,267.37082 22.60216,0"
       id="path4304-1"
       inkscape:connector-curvature="0" />
    <path
       style="fill:none;fill-rule:evenodd;stroke:#37abc8;stroke-width:1px;stroke-linecap:butt;stroke-linejoin:miter;stroke-opacity:1"
       d="m 133.19001,188.05564 c 0,0 -3.47136,2.71728 -3.30357,4.5967 0.1959,2.19424 4.61201,2.39973 4.74664,4.59858 0.16015,2.61583 -5.11352,3.50383 -4.93723,6.11862 0.15391,2.28295 4.91533,2.42822 4.9887,4.71518 0.0685,2.13574 -4.21363,2.56164 -4.36704,4.69297 -0.2003,2.78286 4.69338,4.09186 4.76571,6.88099 0.045,1.73467 -2.30498,2.74714 -2.73819,4.42745 -1.42866,5.5414 0.84498,17.14699 0.84498,17.14699"
       id="path4138-2"
       inkscape:connector-curvature="0"
       sodipodi:nodetypes="csssssssc" />
    <path
       style="fill:none;fill-rule:evenodd;stroke:#37abc8;stroke-width:1px;stroke-linecap:butt;stroke-linejoin:miter;stroke-opacity:1"
       d="m 180.38587,198.36055 c 0,0 -4.40278,0.22258 -5.34785,1.85574 -1.10338,1.90673 2.38872,4.61772 1.2326,6.49294 -1.37537,2.23081 -6.19827,-0.08 -7.55985,2.15926 -1.18879,1.95508 2.6203,4.81568 1.36336,6.72765 -1.17386,1.78555 -4.92,-0.3321 -6.27274,1.32206 -1.76625,2.15981 1.48085,6.048 -0.0661,8.36992 -0.96211,1.44411 -3.46638,0.91865 -4.78815,2.04294 -4.359,3.70774 -9.18316,14.50527 -9.18316,14.50527"
       id="path4138-3-7"
       inkscape:connector-curvature="0"
       sodipodi:nodetypes="csssssssc" />
    <path
       style="fill:none;fill-rule:evenodd;stroke:#37abc8;stroke-width:1px;stroke-linecap:butt;stroke-linejoin:miter;stroke-opacity:1"
       d="m 208.12938,231.42437 c 0,0 -3.93552,-1.98637 -5.5652,-1.03531 -1.90266,1.11037 -0.21075,5.1947 -2.14364,6.25158 -2.29943,1.2573 -5.34572,-3.13819 -7.63735,-1.86673 -2.00081,1.1101 -0.10755,5.48135 -2.14623,6.52025 -1.90391,0.9702 -4.11029,-2.72437 -6.10456,-1.9569 -2.60389,1.00209 -1.70767,5.98791 -4.20129,7.23942 -1.55088,0.77837 -3.46655,-0.91801 -5.17158,-0.59557 -5.62295,1.06335 -15.16011,8.05632 -15.16011,8.05632"
       id="path4138-3-6-0"
       inkscape:connector-curvature="0"
       sodipodi:nodetypes="csssssssc" />
    <path
       style="fill:none;fill-rule:evenodd;stroke:#37abc8;stroke-width:1px;stroke-linecap:butt;stroke-linejoin:miter;stroke-opacity:1"
       d="m 213.21251,299.50835 c 0,0 -1.78226,-4.03207 -3.64539,-4.33065 -2.1752,-0.34859 -3.45819,3.88203 -5.62284,3.47292 -2.57513,-0.48672 -2.14174,-5.81704 -4.71983,-6.28785 -2.2509,-0.41108 -3.56025,4.16908 -5.79528,3.67896 -2.08724,-0.45776 -1.4492,-4.71344 -3.47771,-5.38523 -2.64859,-0.87713 -5.11855,3.54564 -7.84013,2.93127 -1.69266,-0.38208 -2.09745,-2.90867 -3.62005,-3.741 -5.02132,-2.74493 -16.82997,-3.38901 -16.82997,-3.38901"
       id="path4138-3-6-7-9"
       inkscape:connector-curvature="0"
       sodipodi:nodetypes="csssssssc" />
    <path
       style="fill:none;fill-rule:evenodd;stroke:#37abc8;stroke-width:1px;stroke-linecap:butt;stroke-linejoin:miter;stroke-opacity:1"
       d="m 182.58946,335.83049 c 0,0 0.55532,-4.37329 -0.88614,-5.5909 -1.68292,-1.42156 -4.96589,1.53924 -6.60852,0.0713 -1.9541,-1.74633 1.16901,-6.08756 -0.79584,-7.8218 -1.71548,-1.51415 -5.20149,1.73239 -6.86257,0.15874 -1.55122,-1.46964 1.19235,-4.78488 -0.19808,-6.4075 -1.81545,-2.11861 -6.21417,0.39394 -8.22779,-1.53732 -1.25236,-1.20111 -0.2946,-3.57392 -1.16887,-5.07283 -2.88319,-4.94323 -12.66382,-11.59142 -12.66382,-11.59142"
       id="path4138-3-6-7-5-36"
       inkscape:connector-curvature="0"
       sodipodi:nodetypes="csssssssc" />
    <path
       style="fill:none;fill-rule:evenodd;stroke:#37abc8;stroke-width:1px;stroke-linecap:butt;stroke-linejoin:miter;stroke-opacity:1"
       d="m 139.14907,348.15147 c 0,0 2.99402,-3.23572 2.52889,-5.06439 -0.54305,-2.13499 -4.93546,-1.63415 -5.41876,-3.78346 -0.57492,-2.55688 4.48985,-4.27389 3.89915,-6.82718 -0.51572,-2.22925 -5.23944,-1.61394 -5.67631,-3.85998 -0.40793,-2.09755 3.75161,-3.20034 3.56343,-5.3289 -0.24569,-2.77921 -5.28543,-3.29169 -5.80128,-6.03365 -0.32085,-1.70532 1.83777,-3.07933 1.99768,-4.80719 0.52741,-5.69826 -3.56651,-16.79325 -3.56651,-16.79325"
       id="path4138-3-6-7-5-3-0"
       inkscape:connector-curvature="0"
       sodipodi:nodetypes="csssssssc" />
    <path
       style="fill:none;fill-rule:evenodd;stroke:#37abc8;stroke-width:1px;stroke-linecap:butt;stroke-linejoin:miter;stroke-opacity:1"
       d="m 70.927835,322.17069 c 0,0 4.124192,1.55727 5.643671,0.43853 1.774004,-1.30613 -0.342027,-5.1877 1.467718,-6.44386 2.152934,-1.49434 5.648716,2.55283 7.792389,1.04522 1.871623,-1.31626 -0.475078,-5.46177 1.441757,-6.71128 1.790131,-1.16686 4.376337,2.27255 6.277848,1.29765 2.482759,-1.27291 1.062198,-6.13538 3.408839,-7.64459 1.459448,-0.93865 3.544423,0.54473 5.205573,0.0431 5.47825,-1.65439 14.21897,-9.6205 14.21897,-9.6205"
       id="path4138-3-6-7-5-3-5-62"
       inkscape:connector-curvature="0"
       sodipodi:nodetypes="csssssssc" />
    <path
       style="fill:none;fill-rule:evenodd;stroke:#37abc8;stroke-width:1px;stroke-linecap:butt;stroke-linejoin:miter;stroke-opacity:1"
       d="m 49.241361,283.80455 c 0,0 3.120761,3.11367 4.965642,2.71767 2.15391,-0.46231 1.818715,-4.87047 3.98469,-5.27254 2.576705,-0.4783 4.101908,4.6475 6.675618,4.1533 2.247077,-0.43146 1.809963,-5.17501 4.070848,-5.52704 2.111417,-0.32871 3.056898,3.86939 5.19103,3.76145 2.78649,-0.14095 3.488257,-5.15783 6.247686,-5.57013 1.716184,-0.25645 3.007991,1.95235 4.728594,2.1772 5.674375,0.74147 16.915561,-2.93204 16.915561,-2.93204"
       id="path4138-3-6-7-5-3-5-6-6"
       inkscape:connector-curvature="0"
       sodipodi:nodetypes="csssssssc" />
    <path
       style="fill:none;fill-rule:evenodd;stroke:#37abc8;stroke-width:1px;stroke-linecap:butt;stroke-linejoin:miter;stroke-opacity:1"
       d="m 52.986361,238.33726 c 0,0 1.380094,4.18682 3.205177,4.66585 2.130785,0.5593 3.820667,-3.52586 5.935038,-2.90736 2.515309,0.7358 1.563604,5.99834 4.083414,6.71859 2.20001,0.62887 3.950269,-3.80159 6.12676,-3.0956 2.032582,0.65935 0.982112,4.83241 2.935351,5.69903 2.550309,1.13151 5.440254,-3.02899 8.08885,-2.15184 1.647264,0.5455 1.803458,3.09955 3.237498,4.07656 4.729347,3.22205 16.418701,5.01591 16.418701,5.01591"
       id="path4138-3-6-7-5-3-5-6-2-1"
       inkscape:connector-curvature="0"
       sodipodi:nodetypes="csssssssc" />
    <path
       style="fill:none;fill-rule:evenodd;stroke:#37abc8;stroke-width:1px;stroke-linecap:butt;stroke-linejoin:miter;stroke-opacity:1"
       d="m 84.416347,204.13891 c 0,0 -1.154912,4.25444 0.104288,5.65973 1.470105,1.64068 5.131052,-0.83756 6.554842,0.84349 1.693768,1.99983 -1.999798,5.86734 -0.293711,7.85668 1.489548,1.73689 5.391119,-0.99626 6.818554,0.79202 1.333027,1.67009 -1.842733,4.57397 -0.690113,6.37331 1.504963,2.34936 6.208933,0.4694 7.936063,2.66062 1.07418,1.36279 -0.20259,3.58031 0.45591,5.18574 2.17173,5.29452 10.93876,13.23167 10.93876,13.23167"
       id="path4138-3-6-7-5-3-5-6-9-8"
       inkscape:connector-curvature="0"
       sodipodi:nodetypes="csssssssc" />
    <path
       style="fill:#dbdbe3;fill-opacity:1;stroke:#000000;stroke-width:1;stroke-miterlimit:4;stroke-dasharray:none;stroke-dashoffset:0;stroke-opacity:1"
       id="path4136-7"
       sodipodi:type="arc"
       sodipodi:cx="134.20015"
       sodipodi:cy="271.28516"
       sodipodi:rx="41.668793"
       sodipodi:ry="41.668793"
       sodipodi:start="5.7829739"
       sodipodi:end="5.7787153"
       sodipodi:open="true"
       d="m 170.76373,251.30034 a 41.668793,41.668793 0 0 1 -16.53985,56.5271 41.668793,41.668793 0 0 1 -56.544676,-16.47966 41.668793,41.668793 0 0 1 16.419456,-56.56219 41.668793,41.668793 0 0 1 56.57963,16.35922" />
    <text
       xml:space="preserve"
       style="font-style:normal;font-weight:normal;font-size:12.28699684px;line-height:125%;font-family:sans-serif;letter-spacing:0px;word-spacing:0px;fill:#000000;fill-opacity:1;stroke:none;stroke-width:1px;stroke-linecap:butt;stroke-linejoin:miter;stroke-opacity:1"
       x="186.26395"
       y="272.05637"
       id="text4306-9"
       sodipodi:linespacing="125%"><tspan
         sodipodi:role="line"
         id="tspan4308-2"
         x="186.26395"
         y="272.05637"><tspan
   style="fill:#37abc8"
   id="tspan4314-0">GTCAAA</tspan>-<tspan
   style="fill:#ff0000"
   id="tspan4310-2">NNNN</tspan>-TTTTTTTT-3'</tspan></text>
    <text
       xml:space="preserve"
       style="font-style:normal;font-weight:normal;font-size:40px;line-height:125%;font-family:sans-serif;letter-spacing:0px;word-spacing:0px;fill:#000000;fill-opacity:1;stroke:none;stroke-width:1px;stroke-linecap:butt;stroke-linejoin:miter;stroke-opacity:1"
       x="225.32304"
       y="51.45359"
       id="text4378"
       sodipodi:linespacing="125%"><tspan
         sodipodi:role="line"
         x="225.32304"
         y="51.45359"
         id="tspan4386"
         style="font-style:italic;font-size:12.5px">Cell barcode </tspan><tspan
         sodipodi:role="line"
         x="225.32304"
         y="67.07859"
         id="tspan4390"
         style="font-style:italic;font-size:12.5px">(constant within bead)</tspan></text>
    <text
       xml:space="preserve"
       style="font-style:normal;font-weight:normal;font-size:40px;line-height:125%;font-family:sans-serif;letter-spacing:0px;word-spacing:0px;fill:#000000;fill-opacity:1;stroke:none;stroke-width:1px;stroke-linecap:butt;stroke-linejoin:miter;stroke-opacity:1"
       x="264.40936"
       y="137.52588"
       id="text4378-3"
       sodipodi:linespacing="125%"><tspan
         sodipodi:role="line"
         x="264.40936"
         y="137.52588"
         id="tspan4390-5"
         style="font-style:italic;font-size:12.5px">UMI (variable within bead)</tspan></text>
    <path
       style="fill:none;fill-rule:evenodd;stroke:#000000;stroke-width:1px;stroke-linecap:butt;stroke-linejoin:miter;stroke-opacity:1;marker-end:url(#Arrow1Mend)"
       d="m 223.39286,47.183631 c -21.78572,0 -20.17857,41.428572 -20.17857,41.428572"
       id="path4415"
       inkscape:connector-curvature="0" />
    <path
       style="fill:none;fill-rule:evenodd;stroke:#000000;stroke-width:1px;stroke-linecap:butt;stroke-linejoin:miter;stroke-opacity:1;marker-end:url(#Arrow1Mend-9)"
       d="m 261.47399,133.06649 c -21.78572,0 -19.46428,-15.89285 -18.92857,-30.17857"
       id="path4415-2"
       inkscape:connector-curvature="0"
       sodipodi:nodetypes="cc" />
    <path
       style="fill:#d7eef4;fill-opacity:1;stroke:none;stroke-width:1;stroke-miterlimit:4;stroke-dasharray:none;stroke-dashoffset:0;stroke-opacity:1"
       d="m 721.19241,136.74148 c 11.77233,65.46774 -67.67777,144.06698 -134.09144,147.78699 -63.74896,3.57078 -143.72971,-62.74723 -143.7482,-126.59611 -0.0142,-52.43277 65.94453,-97.635077 117.98595,-104.029197 59.56634,-7.31859 149.23237,23.77142 159.85369,82.838317 z"
       id="rect4176-2-6-8-6"
       inkscape:connector-curvature="0"
       sodipodi:nodetypes="aaaaa" />
    <path
       style="fill:#e3dbdb;fill-opacity:1;stroke:#000000;stroke-width:4.72826052;stroke-miterlimit:4;stroke-dasharray:none;stroke-dashoffset:0;stroke-opacity:1"
       id="path4219-6-6-9-0-4-1"
       sodipodi:type="arc"
       sodipodi:cx="622.04242"
       sodipodi:cy="154.86264"
       sodipodi:rx="62.072353"
       sodipodi:ry="56.055096"
       sodipodi:start="5.7829739"
       sodipodi:end="5.7787188"
       sodipodi:open="true"
       d="m 676.50974,127.978 a 62.072353,56.055096 0 0 1 -24.63881,76.04331 62.072353,56.055096 0 0 1 -84.23237,-22.16944 62.072353,56.055096 0 0 1 24.4596,-76.09047 62.072353,56.055096 0 0 1 84.28441,22.00754" />
    <path
       style="fill:#ac9393;fill-opacity:1;stroke:#000000;stroke-width:4.72826052;stroke-miterlimit:4;stroke-dasharray:none;stroke-dashoffset:0;stroke-opacity:1"
       id="path4219-6-5-2-1-6-5-0"
       sodipodi:type="arc"
       sodipodi:cx="632.30383"
       sodipodi:cy="160.23602"
       sodipodi:rx="25.929972"
       sodipodi:ry="23.416336"
       sodipodi:start="5.7829739"
       sodipodi:end="5.7787188"
       sodipodi:open="true"
       d="m 655.0569,149.00529 a 25.929972,23.416336 0 0 1 -10.29257,31.76617 25.929972,23.416336 0 0 1 -35.18705,-9.26101 25.929972,23.416336 0 0 1 10.2177,-31.78588 25.929972,23.416336 0 0 1 35.20879,9.19339" />
    <path
       style="fill:none;fill-rule:evenodd;stroke:#c83737;stroke-width:1.56233442;stroke-linecap:butt;stroke-linejoin:miter;stroke-miterlimit:4;stroke-dasharray:none;stroke-opacity:1"
       d="m 512.48419,137.30922 c 0,0 -1.93081,1.51138 -1.83749,2.55675 0.1089,1.22046 2.56528,1.33477 2.64016,2.55779 0.0891,1.45498 -2.84421,1.94889 -2.74616,3.40329 0.0856,1.26979 2.73397,1.3506 2.77478,2.62265 0.0382,1.18793 -2.34367,1.42482 -2.42901,2.6103 -0.11136,1.54788 2.61053,2.27595 2.65077,3.82732 0.025,0.96485 -1.28207,1.52799 -1.52303,2.46262 -0.79464,3.08221 0.46998,9.5374 0.46998,9.5374"
       id="path4138-2-9"
       inkscape:connector-curvature="0"
       sodipodi:nodetypes="csssssssc" />
    <path
       style="fill:none;fill-rule:evenodd;stroke:#c83737;stroke-width:1.56233442;stroke-linecap:butt;stroke-linejoin:miter;stroke-miterlimit:4;stroke-dasharray:none;stroke-opacity:1"
       d="m 538.73527,143.04097 c 0,0 -2.44889,0.12374 -2.97456,1.03218 -0.61371,1.06056 1.32864,2.56845 0.6856,3.61148 -0.76501,1.2408 -3.44757,-0.0446 -4.20492,1.20102 -0.66122,1.08744 1.45747,2.67856 0.75833,3.74201 -0.65291,0.99315 -2.73658,-0.18471 -3.48899,0.73535 -0.98242,1.20133 0.82366,3.364 -0.0367,4.65549 -0.53512,0.80322 -1.92804,0.51097 -2.66322,1.13632 -2.42456,2.06229 -5.10782,8.06805 -5.10782,8.06805"
       id="path4138-3-7-7"
       inkscape:connector-curvature="0"
       sodipodi:nodetypes="csssssssc" />
    <path
       style="fill:none;fill-rule:evenodd;stroke:#c83737;stroke-width:1.56233442;stroke-linecap:butt;stroke-linejoin:miter;stroke-miterlimit:4;stroke-dasharray:none;stroke-opacity:1"
       d="m 554.16665,161.43158 c 0,0 -2.189,-1.10485 -3.09545,-0.57587 -1.0583,0.61761 -0.11718,2.88937 -1.19233,3.47724 -1.27897,0.69932 -2.97337,-1.74553 -4.24801,-1.03832 -1.11288,0.61746 -0.0599,3.04881 -1.19377,3.62668 -1.05898,0.53962 -2.28621,-1.51534 -3.39545,-1.08846 -1.44832,0.55738 -0.94984,3.33056 -2.33682,4.02668 -0.86262,0.43294 -1.92815,-0.51062 -2.87652,-0.33128 -3.12757,0.59146 -8.43228,4.48105 -8.43228,4.48105"
       id="path4138-3-6-0-3"
       inkscape:connector-curvature="0"
       sodipodi:nodetypes="csssssssc" />
    <path
       style="fill:none;fill-rule:evenodd;stroke:#c83737;stroke-width:1.56233442;stroke-linecap:butt;stroke-linejoin:miter;stroke-miterlimit:4;stroke-dasharray:none;stroke-opacity:1"
       d="m 556.99397,199.30094 c 0,0 -0.99133,-2.24271 -2.02763,-2.40877 -1.20988,-0.1939 -1.92349,2.15924 -3.1275,1.9317 -1.43233,-0.27073 -1.19128,-3.23553 -2.62526,-3.49742 -1.25198,-0.22864 -1.98026,2.31892 -3.22342,2.0463 -1.16096,-0.25462 -0.80607,-2.62169 -1.93436,-2.99535 -1.47319,-0.48787 -2.84701,1.97215 -4.3608,1.63041 -0.94148,-0.2125 -1.16663,-1.61784 -2.01352,-2.08079 -2.79294,-1.52677 -9.36111,-1.88502 -9.36111,-1.88502"
       id="path4138-3-6-7-9-6"
       inkscape:connector-curvature="0"
       sodipodi:nodetypes="csssssssc" />
    <path
       style="fill:none;fill-rule:evenodd;stroke:#c83737;stroke-width:1.56233442;stroke-linecap:butt;stroke-linejoin:miter;stroke-miterlimit:4;stroke-dasharray:none;stroke-opacity:1"
       d="m 539.96094,219.50388 c 0,0 0.30889,-2.43249 -0.49288,-3.10973 -0.93606,-0.7907 -2.7621,0.85613 -3.67575,0.0397 -1.08691,-0.97133 0.65021,-3.386 -0.44266,-4.3506 -0.95418,-0.84221 -2.89317,0.96357 -3.81708,0.0883 -0.86282,-0.81745 0.6632,-2.66143 -0.11013,-3.56396 -1.00977,-1.17841 -3.45642,0.21912 -4.57643,-0.85508 -0.69658,-0.66809 -0.16385,-1.98786 -0.65014,-2.82158 -1.60368,-2.74951 -7.0438,-6.44734 -7.0438,-6.44734"
       id="path4138-3-6-7-5-36-1"
       inkscape:connector-curvature="0"
       sodipodi:nodetypes="csssssssc" />
    <path
       style="fill:none;fill-rule:evenodd;stroke:#c83737;stroke-width:1.56233442;stroke-linecap:butt;stroke-linejoin:miter;stroke-miterlimit:4;stroke-dasharray:none;stroke-opacity:1"
       d="m 515.79872,226.35701 c 0,0 1.66532,-1.79976 1.40661,-2.81691 -0.30206,-1.18751 -2.74517,-0.90893 -3.014,-2.10442 -0.31978,-1.42217 2.49732,-2.3772 2.16877,-3.79737 -0.28684,-1.23995 -2.91425,-0.8977 -3.15725,-2.14698 -0.22689,-1.16671 2.08671,-1.78009 1.98203,-2.96403 -0.1367,-1.54583 -2.93983,-1.83088 -3.22675,-3.356 -0.17847,-0.94853 1.02218,-1.71278 1.11113,-2.67385 0.29336,-3.16945 -1.98374,-9.34066 -1.98374,-9.34066"
       id="path4138-3-6-7-5-3-0-2"
       inkscape:connector-curvature="0"
       sodipodi:nodetypes="csssssssc" />
    <path
       style="fill:none;fill-rule:evenodd;stroke:#c83737;stroke-width:1.56233442;stroke-linecap:butt;stroke-linejoin:miter;stroke-miterlimit:4;stroke-dasharray:none;stroke-opacity:1"
       d="m 477.85301,211.90609 c 0,0 2.29395,0.86617 3.1391,0.24391 0.98673,-0.72649 -0.19024,-2.88548 0.81637,-3.58417 1.1975,-0.83118 3.1419,1.41993 4.33425,0.58136 1.04103,-0.73213 -0.26425,-3.03791 0.80192,-3.73292 0.99569,-0.64902 2.43418,1.26405 3.49184,0.72179 1.38094,-0.70802 0.59081,-3.41261 1.89604,-4.25205 0.81178,-0.52209 1.97146,0.30298 2.89543,0.0241 3.04708,-0.9202 7.9088,-5.35107 7.9088,-5.35107"
       id="path4138-3-6-7-5-3-5-62-9"
       inkscape:connector-curvature="0"
       sodipodi:nodetypes="csssssssc" />
    <path
       style="fill:none;fill-rule:evenodd;stroke:#c83737;stroke-width:1.56233442;stroke-linecap:butt;stroke-linejoin:miter;stroke-miterlimit:4;stroke-dasharray:none;stroke-opacity:1"
       d="m 465.79066,190.56624 c 0,0 1.73581,1.73188 2.76196,1.51162 1.19804,-0.25715 1.01159,-2.70904 2.21634,-2.93267 1.43321,-0.26604 2.28155,2.585 3.71309,2.31012 1.24987,-0.23999 1.00674,-2.87842 2.26428,-3.07423 1.1744,-0.18282 1.70028,2.15222 2.88731,2.09219 1.5499,-0.0785 1.94023,-2.86887 3.47508,-3.0982 0.95457,-0.14263 1.67309,1.08592 2.63011,1.21099 3.15618,0.41242 9.40871,-1.63085 9.40871,-1.63085"
       id="path4138-3-6-7-5-3-5-6-6-3"
       inkscape:connector-curvature="0"
       sodipodi:nodetypes="csssssssc" />
    <path
       style="fill:none;fill-rule:evenodd;stroke:#c83737;stroke-width:1.56233442;stroke-linecap:butt;stroke-linejoin:miter;stroke-miterlimit:4;stroke-dasharray:none;stroke-opacity:1"
       d="m 467.87369,165.27663 c 0,0 0.76763,2.32877 1.78277,2.59522 1.18517,0.3111 2.12511,-1.96114 3.30116,-1.61713 1.39905,0.40927 0.86969,3.33639 2.27126,3.73699 1.22367,0.34978 2.19719,-2.1145 3.4078,-1.72182 1.13054,0.36674 0.54625,2.68787 1.63268,3.1699 1.41852,0.62935 3.02596,-1.68479 4.49915,-1.19689 0.91623,0.30341 1.00311,1.72401 1.80075,2.26744 2.63053,1.79215 9.13233,2.78992 9.13233,2.78992"
       id="path4138-3-6-7-5-3-5-6-2-1-1"
       inkscape:connector-curvature="0"
       sodipodi:nodetypes="csssssssc" />
    <path
       style="fill:none;fill-rule:evenodd;stroke:#c83737;stroke-width:1.56233442;stroke-linecap:butt;stroke-linejoin:miter;stroke-miterlimit:4;stroke-dasharray:none;stroke-opacity:1"
       d="m 485.35553,146.25499 c 0,0 -0.64237,2.36637 0.058,3.14802 0.8177,0.91258 2.85398,-0.46587 3.64591,0.46915 0.9421,1.11235 -1.11231,3.26351 -0.16337,4.37002 0.82852,0.96609 2.99864,-0.55414 3.79259,0.44053 0.74147,0.92893 -1.02496,2.54411 -0.38384,3.54494 0.83707,1.30675 3.45349,0.26109 4.41416,1.47988 0.59746,0.75799 -0.11265,1.99141 0.25358,2.88438 1.20795,2.94489 6.08431,7.35966 6.08431,7.35966"
       id="path4138-3-6-7-5-3-5-6-9-8-9"
       inkscape:connector-curvature="0"
       sodipodi:nodetypes="csssssssc" />
    <path
       style="fill:none;fill-rule:evenodd;stroke:#c83737;stroke-width:1.56233442;stroke-linecap:butt;stroke-linejoin:miter;stroke-miterlimit:4;stroke-dasharray:none;stroke-opacity:1"
       d="m 558.60398,178.35308 c 0,0 -1.81847,-1.64487 -2.83261,-1.37469 -1.18403,0.31543 -0.87783,2.75528 -2.07023,3.03756 -1.41848,0.33584 -2.40526,-2.47032 -3.82165,-2.12574 -1.23663,0.30086 -0.86473,2.92422 -2.11117,3.18132 -1.16406,0.24007 -1.80355,-2.06645 -2.98622,-1.94843 -1.54419,0.15404 -1.79758,2.96034 -3.31934,3.26447 -0.94646,0.18916 -1.72421,-1.0028 -2.68623,-1.08088 -3.17256,-0.25753 -9.31765,2.08914 -9.31765,2.08914"
       id="path4138-3-6-0-3-7"
       inkscape:connector-curvature="0"
       sodipodi:nodetypes="csssssssc" />
    <path
       style="fill:#dbdbe3;fill-opacity:1;stroke:#000000;stroke-width:1;stroke-miterlimit:4;stroke-dasharray:none;stroke-dashoffset:0;stroke-opacity:1"
       id="path4136-7-4"
       sodipodi:type="arc"
       sodipodi:cx="513.04608"
       sodipodi:cy="183.60277"
       sodipodi:rx="23.17683"
       sodipodi:ry="23.17683"
       sodipodi:start="5.7829739"
       sodipodi:end="5.7787153"
       sodipodi:open="true"
       d="m 533.38331,172.4869 a 23.17683,23.17683 0 0 1 -9.19972,31.44125 23.17683,23.17683 0 0 1 -31.45103,-9.16624 23.17683,23.17683 0 0 1 9.13276,-31.46077 23.17683,23.17683 0 0 1 31.47047,9.09926" />
    <text
       xml:space="preserve"
       style="font-style:normal;font-weight:normal;font-size:40px;line-height:125%;font-family:sans-serif;letter-spacing:0px;word-spacing:0px;fill:#000000;fill-opacity:1;stroke:none;stroke-width:1px;stroke-linecap:butt;stroke-linejoin:miter;stroke-opacity:1"
       x="490.80698"
       y="303.28674"
       id="text4378-3-8"
       sodipodi:linespacing="125%"><tspan
         sodipodi:role="line"
         x="490.80698"
         y="303.28674"
         id="tspan4390-5-4"
         style="font-style:italic;font-size:12.5px">One bead loaded per droplet,</tspan><tspan
         sodipodi:role="line"
         x="490.80698"
         y="318.91174"
         style="font-style:italic;font-size:12.5px"
         id="tspan4213">as well as ≤ 1 cell (hopefully)</tspan></text>
    <text
       xml:space="preserve"
       style="font-style:normal;font-weight:normal;font-size:23.35254669px;line-height:125%;font-family:sans-serif;letter-spacing:0px;word-spacing:0px;fill:#000000;fill-opacity:1;stroke:none;stroke-width:1px;stroke-linecap:butt;stroke-linejoin:miter;stroke-opacity:1"
       x="92.470703"
       y="106.82101"
       id="text4214"
       sodipodi:linespacing="125%"><tspan
         sodipodi:role="line"
         id="tspan4216"
         x="92.470703"
         y="106.82101">Bead</tspan></text>
    <text
       xml:space="preserve"
       style="font-style:normal;font-weight:normal;font-size:23.35254669px;line-height:125%;font-family:sans-serif;letter-spacing:0px;word-spacing:0px;fill:#000000;fill-opacity:1;stroke:none;stroke-width:1px;stroke-linecap:butt;stroke-linejoin:miter;stroke-opacity:1"
       x="105.57208"
       y="278.80267"
       id="text4214-6"
       sodipodi:linespacing="125%"><tspan
         sodipodi:role="line"
         id="tspan4216-7"
         x="105.57208"
         y="278.80267">Bead</tspan></text>
    <text
       xml:space="preserve"
       style="font-style:normal;font-weight:normal;font-size:40px;line-height:125%;font-family:sans-serif;letter-spacing:0px;word-spacing:0px;fill:#000000;fill-opacity:1;stroke:none;stroke-width:1px;stroke-linecap:butt;stroke-linejoin:miter;stroke-opacity:1"
       x="268.13742"
       y="227.22025"
       id="text4378-5"
       sodipodi:linespacing="125%"><tspan
         sodipodi:role="line"
         x="268.13742"
         y="227.22025"
         id="tspan4390-56"
         style="font-style:italic;font-size:12.5px">Different cell barcode</tspan></text>
    <path
       style="fill:none;fill-rule:evenodd;stroke:#000000;stroke-width:1px;stroke-linecap:butt;stroke-linejoin:miter;stroke-opacity:1;marker-end:url(#Arrow1Mend-2)"
       d="m 264.01213,221.81145 c -48.04969,-0.50508 -46.94761,18.70014 -45.93746,35.87273"
       id="path4415-1"
       inkscape:connector-curvature="0"
       sodipodi:nodetypes="cc" />
  </g>
</svg>
